<?xml version="1.0" encoding="UTF-8"?>
<svg id="Capa_2" data-name="Capa 2" xmlns="http://www.w3.org/2000/svg" viewBox="0 0 414.28 414.28">
  <defs>
    <style>
      .cls-1 {
        fill: #fff;
      }

      .cls-2 {
        fill: #6366f1;
      }
    </style>
  </defs>
  <g id="Capa_8" data-name="Capa 8">
    <circle cx="207.14" cy="207.14" r="207.14"/>
    <path class="cls-2" d="M357.78,206.98c1.16,22.81-17.58,41.54-40.39,40.39-19.53-.99-35.4-16.86-36.39-36.39-1.16-22.81,17.58-41.55,40.39-40.39,19.53.99,35.4,16.86,36.39,36.39Z"/>
    <path class="cls-1" d="M219.66,290.97l21.79,38.47h-44.6l-14.3-22.47c-49.2,10.74-100.74-3.64-123.76-60.54C23.32,161,109.46,82.55,194.92,113.09c70.02,25.03,97.25,122.39,24.74,177.88ZM183.23,227.65l17.36,24.17c47.84-56.75-23.49-130.55-76.26-89.7-58.04,44.94-5.45,118.29,39.15,107.74l-26.21-43.57,45.96,1.36Z"/>
  </g>
</svg>