<?xml version="1.0" encoding="UTF-8"?>
<svg id="Capa_2" data-name="Capa 2" xmlns="http://www.w3.org/2000/svg" viewBox="0 0 307.22 223.08">
  <defs>
    <style>
      .cls-1 {
        fill: #fff;
      }

      .cls-2 {
        fill: #6366f1;
      }
    </style>
  </defs>
  <g id="Capa_8" data-name="Capa 8">
    <path class="cls-2" d="M307.17,100.62c1.16,22.81-17.58,41.54-40.39,40.39-19.53-.99-35.4-16.86-36.39-36.39-1.16-22.81,17.58-41.55,40.39-40.39,19.53.99,35.4,16.86,36.39,36.39Z"/>
    <path class="cls-1" d="M169.05,184.61l21.79,38.47h-44.6l-14.3-22.47c-49.2,10.74-100.74-3.64-123.76-60.54C-27.29,54.64,58.86-23.81,144.31,6.73c70.02,25.03,97.25,122.39,24.74,177.88ZM132.63,121.29l17.36,24.17c47.84-56.75-23.49-130.55-76.26-89.7-58.04,44.94-5.45,118.29,39.15,107.74l-26.21-43.57,45.96,1.36Z"/>
  </g>
</svg>